<svg xmlns="http://www.w3.org/2000/svg" viewBox="0 0 195 195"><title>Doling Neighborhood on Nextdoor</title><g data-name="Layer 2"><path d="M4 92a94 94 0 0 1 160-61A94 94 0 1 1 4 92Zm131-33a28 28 0 0 0-3-2c-21-13-53-7-67 15-2 3-6 3-8 0-4-4-3-10-4-15 0-2 0-3-3-3l-24 2c0 20 7 36 28 40 3 1 4 3 4 5v43c0 4 0 5 4 5h18c4 0 5-1 5-5V99a24 24 0 0 1 5-16c14-17 40-4 38 16v45c1 4 1 5 5 5h19c2 0 3-1 3-4V92c0-14-9-26-20-33Z" style="fill:#659156;stroke:#000;stroke-miterlimit:10;stroke-width:7px" data-name="Layer 1"/></g></svg>